<svg xmlns="http://www.w3.org/2000/svg" width="256" height="256" viewBox="0 0 100 100"><rect width="100" height="100" rx="20" fill="#04030e"></rect><path fill="#ffffff" d="M25.30 76.69Q27.82 76.42 29.57 75.92Q31.33 75.42 33.04 74.34L33.04 74.34L40.78 25.66Q37.80 23.86 33.04 23.32L33.04 23.32L33.48 19.98L55.09 19.98Q73.27 19.98 73.27 32.95L73.27 32.95Q73.27 40.05 69.58 44.60Q65.88 49.15 58.95 51.03L58.95 51.03Q60.58 52.03 61.70 53.87Q62.83 55.72 63.63 58.78L63.63 58.78L67.41 72.19Q67.95 74.17 69.58 75.06Q71.19 75.97 75.16 76.59L75.16 76.59L74.16 80.02L65.97 80.02Q63.01 80.02 61.52 78.84Q60.04 77.67 59.32 74.53L59.32 74.53L55.98 60.30Q55.09 56.44 54.23 54.91Q53.38 53.38 51.71 52.92Q50.05 52.48 46.09 52.48L46.09 52.48L44.38 52.48L40.95 74.44Q43.84 76.06 49.06 76.69L49.06 76.69L48.61 80.02L24.85 80.02L25.30 76.69ZM46.54 48.34Q54.55 48.34 59.81 44.78Q65.08 41.23 65.08 33.13L65.08 33.13Q65.08 23.77 54.45 23.77L54.45 23.77Q51.13 23.77 50 24.30Q48.88 24.85 48.52 26.73L48.52 26.73L45.09 48.34L46.54 48.34Z"></path></svg>